<?xml version="1.0" encoding="UTF-8" standalone="no"?>
<!DOCTYPE svg PUBLIC "-//W3C//DTD SVG 1.1//EN" "http://www.w3.org/Graphics/SVG/1.1/DTD/svg11.dtd">
<svg width="100%" height="100%" viewBox="0 0 48 48" version="1.1" xmlns="http://www.w3.org/2000/svg" xmlns:xlink="http://www.w3.org/1999/xlink" xml:space="preserve" xmlns:serif="http://www.serif.com/" style="fill-rule:evenodd;clip-rule:evenodd;stroke-linecap:round;stroke-linejoin:round;stroke-miterlimit:1.5;">
    <g id="BorderCircle" transform="matrix(0.0189581,1.07427e-18,-1.07427e-18,0.0189581,0.488928,1.28055)">
        <circle cx="1240.16" cy="1198.4" r="1178.57" style="fill:rgb(247,241,227);stroke:black;stroke-width:63px;"/>
    </g>
    <g id="Wrench" transform="matrix(0.0113248,0.0196151,-0.0196151,0.0113248,30.7704,-14.0094)">
        <g transform="matrix(0.592444,-1.02614,1.02614,0.592444,-687.253,1680.73)">
            <path d="M675.087,1810.38L547.149,1625.46L459.056,1381.51C459.056,1381.51 659.878,1277.71 802.395,1205.33C881.908,1164.95 857.439,1050.11 887.031,917.385C920.411,767.677 1019.52,710.729 1090.59,669.903C1171.35,623.515 1324.46,573.4 1347.41,574.453C1368.63,575.427 1539.45,555.234 1578.76,627.368C1593.88,655.125 1579.65,646.577 1504.38,691.972C1454.53,722.039 1243.66,840.096 1193.44,873.986C1183.77,880.51 1181.13,895.872 1179.09,909.152C1170.74,963.648 1182.79,1212.2 1183.28,1227.15C1183.83,1244.1 1192.11,1260.36 1207.48,1267.25C1229.17,1276.98 1427.55,1408.18 1478.72,1428.11C1491.24,1432.99 1505.86,1438.38 1516.34,1433.27C1570.8,1406.73 1779.03,1284.11 1829.44,1255C1908.75,1209.21 1899.81,1202.95 1916.23,1229.96C1949.08,1284.01 1867.56,1424.36 1852.73,1449.7C1835.27,1479.54 1712.71,1596.51 1627.99,1642.46C1557.58,1680.64 1467.44,1721.48 1325.56,1676.93C1195.82,1636.2 1112.07,1563.36 1034.2,1606.83C887.94,1688.51 675.087,1810.38 675.087,1810.38Z" style="stroke:black;stroke-width:0.36px;"/>
        </g>
        <g transform="matrix(1.18489,-9.86618e-17,-6.57745e-17,0.644737,-205.816,537.507)">
            <g transform="matrix(0.5,-0.866025,0.866025,0.5,-451.836,1329.65)">
                <path d="M22.703,1822.69L551.266,1539.98" style="fill:none;stroke:white;stroke-width:15.39px;"/>
            </g>
            <g transform="matrix(0.5,-0.866025,0.866025,0.5,-236.994,1330.97)">
                <path d="M11.65,1846.24L547.271,1545.12" style="fill:none;stroke:white;stroke-width:15.39px;"/>
            </g>
        </g>
        <g transform="matrix(0.623119,-1.00781,1.00781,0.623119,-689.78,1411.36)">
            <path d="M867.112,1203.24C873.743,1203.13 873.992,1345.12 909.839,1406.14C949.894,1474.32 1056.31,1544.57 1055.11,1550.02C1053.99,1555.11 908.998,1475.78 879.805,1427.23C850.612,1378.68 862.046,1203.32 867.112,1203.24Z" style="fill:white;"/>
        </g>
    </g>
    <g transform="matrix(0.0268372,0,0,0.0268372,-7.62426,-5.04457)">
        <g id="Dice">
            <g>
                <g transform="matrix(1.31395,0,0,1.31395,-237.896,-317.084)">
                    <path d="M1271.27,946.829L1059.55,825.026L1271.52,702.726L1477.01,824.528L1271.27,946.829Z" style="fill:none;stroke:black;stroke-width:22.87px;"/>
                </g>
                <g transform="matrix(-0.656975,-1.13791,1.13791,-0.656975,1184.17,2991.52)">
                    <path d="M1271.27,946.829L1059.55,825.026L1271.52,702.726L1477.01,824.528L1271.27,946.829Z" style="fill:none;stroke:black;stroke-width:22.87px;"/>
                </g>
                <g transform="matrix(-0.656975,1.13791,-1.13791,-0.656975,3337.87,104.623)">
                    <path d="M1271.27,946.829L1059.55,825.026L1271.52,702.726L1477.01,824.528L1271.27,946.829Z" style="fill:none;stroke:black;stroke-width:22.87px;"/>
                </g>
                <g transform="matrix(1.31319,-0.0445989,0.0445989,1.31319,-341.544,-373.552)">
                    <ellipse cx="1153.8" cy="1002.64" rx="9.426" ry="12.77" style="stroke:black;stroke-width:22.87px;"/>
                </g>
                <g transform="matrix(1.31319,-0.0445989,0.0445989,1.31319,-282.293,-263.241)">
                    <ellipse cx="1153.8" cy="1002.64" rx="9.426" ry="12.77" style="stroke:black;stroke-width:22.87px;"/>
                </g>
                <g transform="matrix(1.31367,-0.0272156,0.0272156,1.31367,24.2409,-272.864)">
                    <ellipse cx="1153.8" cy="1002.64" rx="9.426" ry="12.77" style="stroke:black;stroke-width:22.87px;"/>
                </g>
                <g transform="matrix(1.31395,0,0,1.31395,-174.093,-202.592)">
                    <ellipse cx="1153.8" cy="1002.64" rx="9.426" ry="12.77" style="stroke:black;stroke-width:22.87px;"/>
                </g>
                <g transform="matrix(1,0,0,1,286.462,-266.044)">
                    <circle cx="1142.25" cy="1094.2" r="33.148" style="fill:rgb(14,0,0);"/>
                </g>
                <g transform="matrix(1,0,0,1,291.776,-392.197)">
                    <circle cx="1142.25" cy="1094.2" r="33.148" style="fill:rgb(14,0,0);"/>
                </g>
            </g>
        </g>
    </g>
</svg>
